<?xml version="1.0" encoding="UTF-8"?>
<svg id="Layer_2" data-name="Layer 2" xmlns="http://www.w3.org/2000/svg" viewBox="0 0 300.84 188.97">
  <defs>
    <style>
      .cls-1 {
        stroke: #231f20;
        stroke-miterlimit: 10;
        stroke-width: 4.21px;
      }

      .cls-1, .cls-2 {
        fill: #231f20;
      }

      .cls-2, .cls-3 {
        stroke-width: 0px;
      }

      .cls-3 {
        fill: #c77161;
      }
    </style>
  </defs>
  <g id="Layer_11" data-name="Layer 11">
    <g>
      <g>
        <path class="cls-3" d="M284.48,41.95c4.39,1.26,9.68-3.34,13.88-8.1-5.12-5.68-8.14-13.21-8.37-20.86-.55,1.27-3.57-1.05-4.87-.58-22.8-21.06-55.6-4.43-77.02,10.98-2.34,1.55-4.73,3.11-7.42,3.92-3.75,1.13-5.84,4.04-9.75,3.78-70.63.62-116,30.11-184.34,97.01-13.67,15.36,10.95,44.06,16.35,58.27,7.74,1.19,18.13-5.12,17.69-7.16-.25-1.14-3.71-.33-6.45-1.74-9.82-5.06-14.03-40.5,5.62-52.31,24.84-13.5,49.76,11.23,50.69,30.18l146.04-84.09c-11.13-9.96-20.2-41.87,3.79-55.49,9.53-5.19,22.64-5.17,30.41,1.27,9.83,8.15,6.73,22.9,13.75,24.91Z"/>
        <path class="cls-2" d="M283.82,44.36c6.55,1.63,12.39-4.33,16.32-8.74.94-1.05.94-2.48,0-3.54-4.67-5.26-7.38-12.07-7.64-19.09-.09-2.47-3.34-3.41-4.66-1.26l1.77-.8-.26-.06c-.12-.09-.41-.13-.56-.17-.45-.15-.89-.34-1.34-.49-.99-.32-1.98-.46-3-.21l2.43.64c-5.03-4.59-11.02-8-17.68-9.56-6.27-1.47-12.74-1.35-19.06-.27-13.15,2.24-25.51,8.61-36.6,15.82-2.72,1.77-5.31,3.72-8.04,5.47-1.58,1.02-3.21,2.02-5,2.64s-3.31,1.29-4.89,2.22c-1.14.67-2.33,1.46-3.67,1.63-1.55.19-3.24.02-4.81.06-3.15.08-6.31.21-9.46.41-12.11.78-24.19,2.54-35.96,5.51-23.34,5.9-45.05,16.71-64.89,30.22-24.73,16.83-46.94,37.18-68.35,57.97-2.33,2.26-4.78,4.4-6.29,7.32-1.16,2.24-1.79,4.62-2.06,7.12-.56,5.16.8,10.48,2.59,15.28,3.88,10.39,10.12,19.57,15.31,29.3.5.93.98,1.87,1.44,2.83.52,1.08.72,1.52,1.07,2.43.29.75.86,1.62,1.75,1.75,5.91.81,12.34-1.13,17.19-4.55,1.61-1.14,3.69-2.72,3.67-4.91-.03-3.75-4.63-3.01-7.03-3.75-.4-.12-.74-.27-1.09-.48-.14-.09-.27-.18-.41-.27-.48-.32.4.37-.03-.03-.5-.46-.97-.93-1.4-1.46.37.45-.33-.48-.44-.64-.2-.3-.38-.61-.56-.92-.22-.39-.43-.79-.63-1.2-.1-.21-.2-.42-.3-.64-.04-.08-.3-.71-.13-.29-1.63-3.95-2.37-8.11-2.6-12.2-.51-9.05,1.32-19.16,7.62-26.05,7.87-8.59,21.22-9.46,31.27-4.46s19.92,16.45,20.59,28.41c.1,1.87,2.05,3.14,3.76,2.16,4.85-2.8,9.71-5.59,14.56-8.39,11.65-6.71,23.31-13.42,34.96-20.13,14.05-8.09,28.09-16.17,42.14-24.26,12.14-6.99,24.28-13.98,36.41-20.97,5.89-3.39,11.94-6.61,17.71-10.2.08-.05.17-.1.25-.15,1.34-.77,1.7-2.84.51-3.93-2.31-2.09-3.68-4.03-5.23-6.75-1.69-2.98-2.87-5.89-3.81-9.21-1.98-7.02-2.3-14.58.15-21.53,2.78-7.89,9.58-13.95,17.56-16.27,8.78-2.55,20.16-1.34,25.47,7,2.49,3.91,3.37,8.45,4.65,12.83,1.09,3.72,2.71,7.55,6.72,8.8,3.08.96,4.4-3.87,1.33-4.82-.52-.16-.68-.24-1.02-.59-.52-.55-.62-.72-1.1-1.62-.63-1.2-1.17-3.27-1.61-4.92-1.16-4.32-2.35-8.74-4.85-12.52-6.23-9.4-18.33-11.81-28.8-9.52-9.42,2.06-17.91,8.48-21.95,17.31-3.51,7.67-3.83,16.3-2.05,24.46,1.64,7.57,5.16,15.61,11,20.89l.51-3.93c-4.85,2.8-9.71,5.59-14.56,8.39-11.65,6.71-23.31,13.42-34.96,20.13-14.05,8.09-28.09,16.17-42.14,24.26-12.14,6.99-24.28,13.98-36.41,20.97l-12.06,6.94c-1.86,1.07-3.88,2.03-5.65,3.26-.08.05-.17.1-.25.15l3.76,2.16c-.57-10.2-6.43-19.82-13.95-26.48-8.44-7.48-19.62-11.65-30.89-9.41-5.36,1.06-10.5,3.47-14.45,7.27-3.29,3.16-5.65,7.11-7.32,11.32-3.26,8.21-3.69,17.63-2.02,26.26.74,3.83,1.98,7.81,4.17,11.07.97,1.45,2.11,2.75,3.55,3.75,1.06.73,2.3,1.22,3.56,1.47.89.18,1.8.26,2.7.35.2.02.51.09.7.07.32-.04.03.14-.24-.19l-.64-1.1c-.19-.48.05-.82.16-1.08-.05.14-.39.5,0,.05-.23.27-.88.86-.9.88-1.2.96-2.6,1.7-3.98,2.35-2.92,1.38-6.55,2.48-9.82,2.04l1.75,1.75c-1.71-4.45-4.15-8.59-6.53-12.71-2.87-4.97-5.8-9.93-8.33-15.09-3.97-8.1-8.67-19.46-2.72-27.34.91-1.2,2.3-2.38,3.44-3.48,1.6-1.56,3.21-3.12,4.83-4.67,3.13-3.01,6.27-5.99,9.44-8.95,5.71-5.34,11.5-10.61,17.4-15.75,10.64-9.29,21.62-18.21,33.19-26.32,19.8-13.88,41.36-25.18,64.8-31.42,11.52-3.07,23.32-4.94,35.2-5.79,3.27-.23,6.54-.4,9.82-.49s6.74.29,9.84-1.1c1.33-.6,2.54-1.43,3.82-2.11,1.69-.89,3.57-1.33,5.29-2.19,3.25-1.64,6.13-3.93,9.14-5.96,10.89-7.32,22.87-13.8,35.84-16.39,5.99-1.2,12.27-1.42,18.24.01,3.06.73,5.97,1.86,8.7,3.41,1.37.78,2.7,1.64,3.96,2.6.66.51,1.31,1.04,1.93,1.6,1.06.94,1.67,1.31,3.12,1.26-.84.03.48.26.79.37.48.17.95.38,1.45.5,1.62.41,3.22.05,4.13-1.44l-4.66-1.26c.31,8.39,3.53,16.35,9.1,22.62v-3.54c-1.81,2.03-3.73,4.08-5.98,5.65-1.55,1.08-3.51,2.3-5.47,1.81-3.12-.78-4.45,4.04-1.33,4.82Z"/>
      </g>
      <path class="cls-2" d="M186.71,43.26c-40.79,20.37-83.5,46.22-126.9,60.48,10.5-16.52,28.09-26.94,45.03-36.75,26.66-15.92,45.19-25.17,81.87-23.73Z"/>
      <path class="cls-1" d="M268.38,55.34c-8.24,8.78-24.29,8.01-32.11-1.33-11.85-18.32,12.26-43.31,29.44-28.99,8.89,6.78,9.06,22.1,2.67,30.32Z"/>
      <path class="cls-1" d="M79.22,160.54c-3.57,13.51-20.38,21.58-33.51,16.37-22.21-12.15-11.4-50.97,14.05-45.84,12.82,2.01,21.45,17.56,19.46,29.48Z"/>
    </g>
  </g>
</svg>