<?xml version="1.0" encoding="UTF-8"?>
<svg id="Layer_2" data-name="Layer 2" xmlns="http://www.w3.org/2000/svg" viewBox="0 0 2021.52 1990.46">
  <defs>
    <style>
      .cls-1 {
        fill: #00b1dc;
      }

      .cls-1, .cls-2, .cls-3, .cls-4, .cls-5 {
        stroke: #231f20;
        stroke-miterlimit: 10;
      }

      .cls-1, .cls-3 {
        stroke-width: 4.6px;
      }

      .cls-2 {
        fill: none;
      }

      .cls-3 {
        fill: #a1cf6d;
      }

      .cls-4 {
        fill: #fff;
      }

      .cls-5 {
        fill: #0a0203;
      }
    </style>
  </defs>
  <g id="Bakgrunn">
    <g>
      <path class="cls-1" d="M47.27,1267.41c-.13-.21.37.92.24.71.04.25.44,2.26.48,2.22,28.09,317.97,307.52,489.95,504.89,645.51,10.05,5.91,20.17,11.58,30.38,16.72,0,0,34.16,12.65,34.33,12.58,273.25,77.23,589.67,49.69,843.05-76.75-.64.49-1.28.99-1.92,1.48,155.76-69.99,266.72-234.95,364.28-373.24-.32.18-.39.4-.2.67,92.89-158.15,183.79-330.6,186.52-516.7-1.45-14.26-.16-28.49-7.91-41.25-.92-6.89-51.64-639.4-278.79-790.12.42.29.88.49,1.28.82-29.08-23.05-59.9-46.19-94.75-55.98h0C1190.69-105.34,391.2,77.4,146.18,553.15,61.29,661.75,45.63,811.26,12.23,941.83c-22.67,109.22-4.66,223.17,35.03,325.59Z"/>
      <g>
        <g>
          <path class="cls-5" d="M1361.24,1003.32c-251.7,90.67-155.12-410.5,13.26-417.8,46.84-2.66,97.59,66.67,70.23,108.39-73.52-264.87-150.8,148.28-9.31,35.09.65-2.49-8.78-57.49,17.6-56.31,5.02,64.94-27.33,145.3-21.62,209.93,9.26,52.45-21.05,103.56-70.16,120.69Z"/>
          <path class="cls-4" d="M1281.01,868.68c16.59,1.32,28.01,21.26,24.62,38.02-3.25,17.12-17.59,58.06-39.98,49.29-7.3-2.46-13.51-7.31-21.07-9.6-4.72-1.43-7.05-6.7-7.96-11.48-1.91-14.64-4.83-44.84,11.05-52.08,14.73-9.39,13.2-13.88,33.35-14.15Z"/>
          <path class="cls-4" d="M1442.92,681.55c-.23,17.87-.99,35.96-7.26,52.84-9.29,18.94-38.1,24.18-53.66,15.42-2.43-1.36-4.2-3.37-5.53-5.75-5.3-9.57-11.31-18.82-15.1-29.11-4.98-9.31-10.04-18.9-10.73-29.97-1.77-22.79-.62-58.93,20.7-72.35,14.28-9.41,29.97-10.61,43.74,1.08,21.51,16.21,24.43,43.12,27.84,67.84Z"/>
        </g>
        <g>
          <path class="cls-5" d="M554.54,928.93c-4.44-80.6,6.24-161.22,15.74-239.87,3.74-83.41,83.77-191.79,175.4-152.39,129.18,52.23,57.22,301.76,15.78,397.22-37.9,78.59-192.66,101.76-206.91-4.96Z"/>
          <path class="cls-4" d="M788.05,636.87c.03,15.29-5.97,43.9-21.64,49.86-45.12,14.15-85.72-26.19-103.15-63.51-6.24-11.68-4.8-24.05-2.15-36.16,4.3-17.62,30.33-19.66,44.17-28.34,23.93-11.16,60.73,6.67,69.85,31.38,5.89,14.99,14.1,30.11,12.91,46.77Z"/>
          <path class="cls-4" d="M657.01,935.59c-.49,16.44-5.85,43.56-24.57,47.42-23.87,11.25-42.89-5.39-48.33-28.44-3.39-16.19-2.74-37.17,12.58-46.95,6.68-3.82,18.64-16.5,26.12-13.19,11.51,4.52,20.74,12.44,29.57,20.54,5.66,5.2,4.37,13.42,4.63,20.62Z"/>
        </g>
      </g>
      <path class="cls-5" d="M1088.64,1277.9c12.15-17.81,69.27-62.35,57.74-12.71-53.55,61.78-148.53,94.66-230.47,90.63-43.07,13.83-231.61-182.48-135.12-167.2h0c57.3,115.89,199.77,171.32,307.86,89.29Z"/>
      <g>
        <path class="cls-3" d="M1115,1545.01c10.67,2.86,19.37,17.1,39.03,18.81,0,0,73.33,12.52,86.81-10.07.84-4.22,4.22-2.73,5.36-1.87,14.2,14.65,21.14-26.42,52.78-12.24-1.88,15.2,23.86-7.5,24.37,8.76,22.38,3.97,22.85,21.6,25.17,42.33.83,13.49,16.79,20.83,15.57,34.31-2.03,15.11-5.08,29.77-14.18,42.25-3.3,1.13,2.61,6.66-2.47,5.74-12.07,10.38,6.15,17.97-2.87,19.81-35.87-.31-62.98,23.66-95.41,29.3-8.07-.6-1.31,14.74-11.05,10.33-6.78-.75-18.93,26.21-18.93,26.21-6.81,11.2-12.13,4.29-13.49,11.44-1.45,6.59-12.4,5.55-14.29,13.59-100.48,36.87-54.67-43.46-124.36-50.08-9.84,4.35-21.31-2.13-31.99-1.17-14.37,1.62-31.86,6.04-43.41-8.83-2.98-6.04-14.43-2.3-11.12-11.34,3.66-7.41,2.62-21.64,12.11-23.69,6.63,1.04,6.41-2.73,5.47-6.82-6.92-44.51,41.28-64.05,63.5-98.91,2.05-14.48,19.13-13.09,25.33-24.71-1.19-1.96.76-1.45,1.48-1.91,10.11.36,15.54-16.07,26.59-11.23Z"/>
        <path class="cls-3" d="M1559.02,1161.7c94.93-92.08,24.86,3.88,105.72-21.46,2.8-23.67,70.19-8.14,104.12-40.43,78.05-33.89,105.09,62.93,45.57,104.65-6.4,5.4-9.21,14.39-10.43,21.42,10.32,8.83-8.15,3.99-7.09,12.49,1.25,10.4-8.21,20.08-8.61,27.51,4.66,2.28-1.3,10.79-4.41,12.64-8.22,11.71,8.37,28.18.06,32.09-2.69,2.37-8.68,3.35-2.52,9.07,6.06,5.48-8.01,14.66-2.69,20.68,17.64,41.66-11.62,60.21-31.22,88.91-23.22,20.9-60.4,45.32-85.14,20.55,1.34-5.65-9.95.02-11.24-7.06-8.99-2.94-19.54,7.75-23.53-9.42-5.3-9.38-80.1-24.1-84.85-11.94-2.22,8.83-5.12-3.56-9.54-3.38-12.72-2.11-32.06-23.5-25.27-35.85-2.54-13.23-10.58-43.55,3.49-51.6,7.21-5.18.52-17.73.74-25.52,20.42-37.7,7.54-126.75,46.84-143.36Z"/>
        <path class="cls-3" d="M1097.4,693.35c-15.06-4.75-35.94,3.05-45.12-9.46-6.24-8.5-18.14,3.01-26.97,1.89-19.56,3-42.57,14.52-52.07-8.06-2.01-6.58-14.8-.69-14-11.04-3.77-36.17,6.59-77.22,11.2-113.1,11.19-1.56-.58-8.58,3.2-12.8,12.51-3.96,9.25-26.31,18.67-26.02,6.79-.1,9.77-5.47,13.93-9.24,26.81.54,60.52,12.99,75.43,25.08.42,14.72,19.11,18.89,20.04,30.1-.17,2.84.29,4.89,3.92,5.83,14.31,2.89,4.49,24.32,19.81,25.72,4.78,3.07,4.7,11.74,12.02,12.62,3.13.97,3.64,2.58,3.63,5.2-2.62,9.26,11.68,13.9,5.06,22.07-1.57,26.14-14.01,73.61-48.74,61.2Z"/>
        <path class="cls-3" d="M1609.71,261.5c-65.92-83.94-68.36-73.77-16.25-168,10.98-2.79,35.69.59,35.69.59,277.76,140.34,411.64,472.56,376,764.12-3.39,20.18,10.09,64.33-14.91,69.64-44.66-49.16-99.61-74.18-163.5-36.49-33.26-8.07-70.28-.88-100.88,18.49-18.33,1.11-37.83-3.21-57.69-2.12-23.28,6.13-43.82,10.62-65.68,22.57-19.53,8.71-26.68,3.71-46.7,2.8-5.98,7.22-10-16.07-15.82-18.7-9.07-18.7-6.65-44,10.15-59.56,4.9-8.39,2.62-19.36,12.83-25.55,13.21-38.58-.44-82.09,25.22-117.43,40-34.88,87.12-90.38,66.72-152.07-67.84-107.07,52.71-212.7-45.19-298.28Z"/>
        <path class="cls-3" d="M1193.69,112.1c-.17,2.87-1.82,4.72-3.45,6.46-6.72,3.26,1.1,11.49-4.36,15.19-11.35,6.47,7.58,22.35-9.69,25.81-2.96,52.74,71.73,101.7-14.86,149.72-5.05.64-46.3,18.52-46.3,18.52-34.84,7.1-64.36-35.64-74.42-66.25-56.29-84.01-171.12-17.31-189.73-189.49,21.02-48.13,546.92-126.94,380.53-4.84-5.5,5.27-3.86,18.09-13.53,17.56-8.14,6.71-14.26,19.93-24.19,27.32Z"/>
        <path class="cls-3" d="M640.58,263.24c-24.99,67.39-1.94,178.01-95.87,191.26-10.02,7.99-28.22,12.36-37.9,23.7-47.07,25.19-94.76,76.24-76.47,133.38,9.63,21.5-82.47,112.46-105.63,117.01-107.37-39.09,1.86-110.06-35.76-166.34-7.87-19.63-30.97-37.18-25.55-60.5,25.68-46.27,75.74-84.49,83.25-137.51,13.88-18.21-1.87-52.35,16.67-68.07,48.17-49.91,468.27-302.38,331.41-114.67-24.73,14.48-34.4,56.75-54.14,81.74Z"/>
        <path class="cls-3" d="M538.54,1460.07c66.89,83.13-57.07,152.59,19.03,237.35,7.92,3.31,3.67,15.32,14.14,16.64,17.66,9.4,8.45,53.14,19.61,71.04-8.56,13.11-22.58,9.55-8.06,31.61,18.8,13.01,39.87,32.53,48.24,51.92,146.53,282.13-387.93-206.6-448.85-261.79-157.85-253.54-236.63-492.93,109.51-354.51,31.73.27,11.25,5.9,26.35,15.31,41.05,8.24,54.19-28.53,114.48-23.66,11.21-4.29,11.51,7.67,21.99,5.83,6.76-4.13,25.91,1.64,25.48,11.21,2.83,10.53,17.48-.99,22.97,9.2,1.55,2.33,16.06,36.27,15.12,54.38-11.26,46.52-9.99,96.14,20,135.47Z"/>
      </g>
      <path class="cls-2" d="M2001.42,939.38c-.06-.41-.58-6.53-1.65-17.26,11.36-13.79,2.57-47.12,5.37-63.91-6.77-51.3,25.86-96.25,12.74-148.18-46.12-213.64-114.15-425.52-295.26-560.78.42.29.88.49,1.28.82-29.1-23.16-59.73-45.67-94.75-55.98.25-.42-262.91-88.4-384.63-85.31C849.71-13.43,333.34,201.72,146.17,553.12,61.29,661.75,45.63,811.26,12.23,941.83c-22.67,109.22-4.66,223.16,35.03,325.59-.13-.21.37.92.24.71.04.25.44,2.26.48,2.22,16.62,108.23,73.99,280.94,151.36,352.08,40.23,54.66,83.94,88.55,134.61,109.91,69.49,69.41,158.32,154.54,249.28,200.25,0,0,.02,0,.03,0,0,0,34.16,12.65,34.33,12.58,273.25,77.23,589.67,49.69,843.05-76.75-.64.49-1.28.99-1.92,1.48,155.62-69.93,266.51-234.64,364.01-372.85,0,.09,0,.18.07.28,90.49-154.98,180.97-323.39,185.79-505.34.34-.37.54-.79.35-1.38-.1.25-.21.51-.31.76.62-17.53,1.44-36.12-7.22-51.98Z"/>
      <path class="cls-2" d="M2001.42,939.38c-.06-.41-.58-6.53-1.65-17.26,11.36-13.79,2.57-47.12,5.37-63.91-6.77-51.3,25.86-96.25,12.74-148.18-46.12-213.64-114.15-425.52-295.26-560.78.42.29.88.49,1.28.82-29.1-23.16-59.73-45.67-94.75-55.98.25-.42-262.91-88.4-384.63-85.31C849.71-13.43,333.34,201.72,146.17,553.12,61.29,661.75,45.63,811.26,12.23,941.83c-22.67,109.22-4.66,223.16,35.03,325.59-.13-.21.37.92.24.71.04.25.44,2.26.48,2.22,16.62,108.23,73.99,280.94,151.36,352.08,40.23,54.66,83.94,88.55,134.61,109.91,69.49,69.41,158.32,154.54,249.28,200.25,0,0,.02,0,.03,0,0,0,34.16,12.65,34.33,12.58,273.25,77.23,589.67,49.69,843.05-76.75-.64.49-1.28.99-1.92,1.48,155.62-69.93,266.51-234.64,364.01-372.85,0,.09,0,.18.07.28,90.49-154.98,180.97-323.39,185.79-505.34.34-.37.54-.79.35-1.38-.1.25-.21.51-.31.76.62-17.53,1.44-36.12-7.22-51.98Z"/>
    </g>
  </g>
</svg>