<?xml version="1.0" encoding="UTF-8"?>
<svg id="Layer_2" data-name="Layer 2" xmlns="http://www.w3.org/2000/svg" viewBox="0 0 164.82 152.16">
  <defs>
    <style>
      .cls-1 {
        fill: #231f20;
      }

      .cls-1, .cls-2 {
        stroke-width: 0px;
      }

      .cls-2 {
        fill: #a1cf6d;
      }

      .cls-3 {
        fill: #0a0203;
      }

      .cls-3, .cls-4 {
        stroke: #231f20;
        stroke-miterlimit: 10;
      }

      .cls-4 {
        fill: #fff;
        stroke-width: 4.6px;
      }
    </style>
  </defs>
  <g id="Layer_3" data-name="Layer 3">
    <g>
      <g>
        <path class="cls-2" d="M70.56,9.64C42.52,3.67,24.45,23.22,26.03,49.34c-31.17.97-32.6,56.46,3.14,58.14,9.62-1.28,1.85,22.62,14.23,17.81,9.43,39.12,46.64,19.02,72.8,20.54,13.25-7.08,21.98-23.62,24.4-38.11,30.93,23.34,28.3-49.64-4.88-34.5,18.88-14.53,6.02-41.14-12.69-35.56,14.9-41.15-59.75-48.67-55.45-9.2"/>
        <path class="cls-1" d="M71.22,7.22c-10.01-2.09-20.72-1.47-29.68,3.83-7.98,4.73-13.54,12.6-16.18,21.42-1.63,5.44-2.16,11.21-1.83,16.87l2.5-2.5c-8.62.31-16.17,4.67-20.82,11.92C.83,65.59-.72,74.24.3,82.22c1.07,8.42,4.85,16.48,11.67,21.75,3.54,2.74,7.73,4.59,12.13,5.41,1.32.25,2.65.42,3.99.53.51.04,1,.04,1.5.03.18,0,.39.02.57,0,.07-.01.38.05-.03-.01-.48-.07.05.05.1.04.09-.03.3.1.4.13-.64-.15-.27-.14-.06.02.42.3-.26-.36-.02-.03.1.13.26.28.38.39.28.26-.22-.42-.05-.06.07.15.18.29.27.43.09.15.16.32.24.47.19.35-.15-.47.02.06,1.06,3.35,1.19,6.86,2.04,10.26.9,3.59,3.19,7.03,7.33,6.8,1.13-.06,2.22-.32,3.27-.72l-3.08-1.75c2.11,8.62,6.26,17.09,14.1,21.82,6.53,3.94,14.45,4.65,21.91,4.3,4.15-.19,8.28-.71,12.4-1.28,2.04-.28,4.07-.58,6.1-.87s3.97-.57,5.8-.8c3.88-.49,7.78-.87,11.69-.88.82,0,1.65.01,2.47.05,1.61.07,2.81-.72,4.12-1.55,2.39-1.52,4.63-3.31,6.66-5.28,8.93-8.66,14.68-20.89,16.76-33.07l-3.67,1.49c4.48,3.36,10.67,6.49,16.33,4.24,4.75-1.89,7.35-6.66,8.4-11.44,2.32-10.58-.67-24.23-9.78-30.88-5.97-4.35-13.41-3.64-19.83-.75l3.03,3.93c6.67-5.2,10.87-13.37,9.84-21.93-.9-7.46-5.36-14.37-12.44-17.3-3.99-1.65-8.4-1.7-12.52-.51l3.08,3.08c2.57-7.17,2.94-15.06-.48-22.01-2.88-5.86-8.26-10.26-14.16-12.85-6.25-2.74-13.21-3.93-20.01-3.31s-13.18,2.78-18.23,7.23-7.73,11.3-7.66,18.15c.01.97.08,1.95.18,2.92.14,1.34,1.05,2.5,2.5,2.5,1.24,0,2.64-1.15,2.5-2.5-.19-1.81-.24-3.63-.09-5.45.02-.19.17-1.39.07-.74.05-.33.1-.65.16-.97.15-.81.35-1.62.6-2.41.11-.35.23-.7.36-1.05.06-.17.13-.34.2-.51.23-.58-.23.49.03-.07.3-.65.62-1.28.98-1.9s.75-1.18,1.16-1.75c.35-.49-.35.42.03-.05.11-.13.22-.27.33-.4.26-.31.53-.61.81-.9.44-.46.89-.9,1.37-1.32.26-.23.53-.45.8-.67.47-.38-.44.32.04-.04.19-.14.37-.28.56-.41,1.15-.81,2.38-1.52,3.65-2.12.32-.15.65-.3.98-.44-.65.28.4-.15.57-.22.74-.28,1.49-.53,2.25-.75,1.43-.42,2.88-.71,4.35-.95.12-.02.77-.1.08-.02.19-.02.37-.05.56-.07.38-.04.75-.08,1.13-.11.76-.06,1.52-.1,2.28-.12,1.6-.04,3.19.03,4.78.18.35.03.7.08,1.05.12.4.05-.62-.09,0,0,.19.03.38.06.57.09.82.13,1.64.29,2.45.47,1.49.33,2.96.75,4.39,1.27.36.13.71.26,1.06.4.18.07.35.14.52.21.6.24-.49-.22.09.04.74.33,1.47.67,2.19,1.05,1.3.69,2.55,1.46,3.74,2.33.15.11.29.22.44.33-.52-.4-.03-.02.06.06.28.23.56.46.83.7.54.47,1.06.97,1.56,1.49s.96,1.06,1.41,1.61c.39.48-.32-.44.04.06.11.14.21.29.31.43.24.34.47.69.69,1.04.41.66.79,1.34,1.13,2.04.08.16.15.33.23.49.31.64-.05-.17.11.24s.31.8.44,1.2c.26.77.47,1.55.64,2.34.09.44.17.87.24,1.31.1.65-.06-.56.01.1.03.26.05.52.08.78.34,4.27-.32,7.46-1.81,11.61-.65,1.82,1.34,3.58,3.08,3.08,3.08-.89,5.81-.94,8.82.1.8.28.75.26,1.56.69.69.37,1.35.78,1.99,1.24.38.27-.43-.36.18.14.13.1.25.21.38.32.25.22.5.44.73.67.57.55,1.1,1.13,1.59,1.75.29.37-.32-.46.14.19.1.14.19.27.29.41.19.28.37.56.55.85.44.73.84,1.48,1.18,2.26-.15-.34.2.53.23.6.13.36.26.73.37,1.11.24.79.43,1.6.57,2.42.03.17.06.35.08.52-.05-.37,0,.07.01.12.04.4.07.8.09,1.2.04.85.03,1.71-.04,2.56-.1,1.29-.47,2.98-1,4.51-1.33,3.8-4.18,7.17-7.47,9.74-.97.76-.89,2.41-.2,3.28.83,1.04,2.06,1.17,3.23.64.61-.28.87-.39,1.82-.72.76-.26,1.53-.48,2.31-.66.37-.08.74-.15,1.11-.22.69-.13-.29,0,.42-.06s1.38-.1,2.08-.09c.28,0,.56.02.83.04.16.01.33.04.49.05.57.02-.58-.12-.02,0,.59.13,1.19.22,1.77.39.27.08.54.17.81.26s.85.35.26.09c.56.25,1.1.52,1.63.83.48.28.94.6,1.39.93-.64-.46.18.15.33.28.23.2.46.41.68.62.41.39.8.81,1.18,1.24.17.2.34.4.5.6.36.43-.34-.46,0,0,.13.17.25.34.37.51.69.97,1.29,2,1.83,3.06.15.29.29.59.43.89.07.16.43,1,.15.32.26.62.5,1.25.71,1.88.42,1.23.76,2.48,1.04,3.75.13.61.24,1.22.34,1.84.03.19.15,1.12.06.34.04.36.09.73.12,1.09.12,1.24.17,2.49.16,3.74,0,.6-.03,1.19-.08,1.79-.02.32-.05.64-.08.96-.01.11-.02.21-.03.31-.07.72.07-.33-.01.11-.21,1.15-.4,2.28-.74,3.4-.14.48-.31.96-.48,1.43-.04.11-.09.22-.13.33-.17.49.27-.54.04-.09-.12.24-.23.5-.35.74-.22.43-.46.86-.72,1.27-.14.22-.3.42-.44.64-.2.33.14-.18.16-.2-.11.13-.21.26-.32.39-.3.34-.61.66-.94.97-.28.26-.52.38-.05.07-.23.16-.45.33-.69.47-.2.13-.42.24-.62.35-.1.06-.22.09-.32.16-.37.23.62-.19.1-.04-.49.14-.98.28-1.48.41-.2.05-.63.03.16-.01-.17,0-.34.04-.52.05-.27.02-.53.02-.8.02s-.55-.03-.83-.05c-.19-.01-.66-.13.09.02-.19-.04-.39-.06-.58-.1-.62-.12-1.23-.29-1.83-.5-.2-.07-1.33-.52-.69-.25-.34-.15-.67-.3-1-.46-1.67-.82-3.23-1.85-4.71-2.97-1.22-.92-3.42,0-3.67,1.49-2.43,14.25-10.13,29.5-23.26,36.61l1.26-.34c-5.33-.3-10.68.24-15.96.93-2.97.39-5.94.83-8.91,1.26s-5.04.72-7.98,1.04c-2.71.3-5.43.52-8.16.58-1.31.03-2.63.02-3.94-.04-.62-.03-1.24-.07-1.86-.12-.33-.03-.65-.06-.98-.09-.2-.02-.88-.1-.76-.09-2.04-.28-4.79-.95-7-1.8-.11-.04-.22-.09-.32-.13-.37-.15.32.14-.04-.02-.25-.11-.49-.22-.74-.34-.56-.27-1.11-.56-1.64-.87s-1.07-.65-1.58-1.01c-.23-.16-.45-.32-.67-.49-.32-.24.26.21-.06-.05-.16-.13-.31-.25-.46-.38-5.09-4.3-7.73-10.52-9.33-17.09-.3-1.23-1.83-2.21-3.08-1.75-.46.17-.92.32-1.39.44-.09.02-.7.14-.34.08s-.36.02-.46.02c-.16,0-.33-.02-.49-.02-.11,0,.5.16.07,0-.15-.06-.32-.11-.48-.15.62.17.18-.05.04-.03-.04,0-.14-.1-.17-.11.56.26.3.29.18.14-.08-.1-.2-.21-.3-.29-.26-.22-.16-.22.03.07-.11-.16-.22-.32-.32-.49-.08-.13-.14-.27-.22-.4-.25-.44-.03-.02-.04-.05-.13-.34-.25-.68-.36-1.03-.97-3.23-.99-6.66-1.89-9.9-.97-3.52-3.24-6.34-7.17-6.2-2.29.08-3.88-.27-6.16-.88-1.03-.28-2.04-.62-3.03-1.01-.11-.04-.21-.09-.32-.13.04.02.33.14.07.03-.24-.11-.49-.22-.73-.33-.44-.21-.87-.43-1.3-.67-.87-.48-1.71-1.01-2.52-1.59-.18-.13-.35-.26-.53-.39.38.29-.14-.12-.26-.21-.39-.32-.77-.65-1.13-.99-.68-.63-1.32-1.29-1.93-1.99-.3-.35-.6-.7-.88-1.07.26.34-.02-.04-.12-.17-.17-.23-.33-.46-.49-.69-1.06-1.55-1.96-3.2-2.71-4.93-.11-.26.03.07.04.11-.04-.1-.08-.2-.12-.3-.09-.23-.18-.46-.27-.7-.17-.47-.34-.94-.49-1.41-.28-.88-.53-1.78-.74-2.69s-.39-1.9-.54-2.85c-.04-.29.01.1.02.13-.01-.11-.03-.21-.04-.32-.02-.21-.05-.43-.07-.64-.05-.5-.09-1-.12-1.5-.11-1.89-.08-3.8.11-5.69.02-.25.05-.5.08-.74.05-.49,0-.05.02-.18.07-.49.15-.98.24-1.47.18-.94.39-1.86.64-2.78s.52-1.74.83-2.59c.08-.23.17-.45.26-.68.03-.09.26-.63.15-.37s.13-.28.16-.36c.11-.25.23-.5.35-.75.79-1.62,1.72-3.16,2.82-4.6-.26.35-.02.02.11-.13.15-.18.3-.36.45-.54.31-.35.62-.7.95-1.04.61-.62,1.25-1.21,1.92-1.76.1-.08.65-.5.2-.17.16-.12.32-.24.49-.36.38-.27.78-.53,1.18-.78.75-.46,1.54-.88,2.34-1.25.12-.06.25-.11.38-.17-.03.01-.39.16-.12.05.19-.08.39-.15.58-.23.46-.17.93-.33,1.4-.47.94-.28,1.9-.49,2.87-.65.17-.03.67-.09.23-.04.23-.03.45-.05.68-.07.54-.05,1.08-.08,1.62-.1,1.29-.05,2.58-1.11,2.5-2.5-.51-8.82,1.16-17.65,6.09-25.01,4.47-6.68,11.48-11.16,19.53-12.69,5.06-.97,10.59-.67,15.75.41,1.32.28,2.7-.39,3.08-1.75.34-1.24-.42-2.8-1.75-3.08h0Z"/>
      </g>
      <g>
        <path class="cls-4" d="M43.59,47.12c-3.93,9.78-9.35,45.38.5,48.81,22.1,8.06,26.92-17.89,28.69-35.11-9.05-6.46-18.7-11.85-29.19-13.7Z"/>
        <path class="cls-3" d="M65.26,112.36c-4.66,1.21-1.66,6.54.5,9.61,3.89,4.89,9.72,5.7,12.79,5.75,1.16.02,2.28-.47,2.99-1.38,4.93-6.28,12.05-11.16,20.1-15.27,6.45-5.53-33.39,1.94-36.39,1.3Z"/>
        <path class="cls-2" d="M63.18,71.59c.7,6.52-7.82,9.67-9.49,2.47-1.17-3.5,1.5-7.55,5.04-7.83,2.17,1.06,4.92,2.57,4.45,5.36Z"/>
      </g>
      <g>
        <path class="cls-4" d="M114.73,49.66c3.93,9.78,9.35,45.38-.5,48.81-21.91,7.37-26.85-17.77-28.69-35.11,9.05-6.46,18.7-11.85,29.19-13.7Z"/>
        <path class="cls-2" d="M95.14,74.13c-.7,6.52,7.82,9.67,9.49,2.47,1.17-3.5-1.5-7.55-5.04-7.83-2.17,1.06-4.92,2.57-4.45,5.36Z"/>
      </g>
    </g>
  </g>
</svg>