<?xml version="1.0" encoding="UTF-8"?>
<svg id="Layer_2" data-name="Layer 2" xmlns="http://www.w3.org/2000/svg" viewBox="0 0 394.33 383.06">
  <defs>
    <style>
      .cls-1 {
        fill: #eaeae9;
        stroke-width: 4.21px;
      }

      .cls-1, .cls-2, .cls-3 {
        stroke: #231f20;
        stroke-miterlimit: 10;
      }

      .cls-4 {
        fill: #231f20;
      }

      .cls-4, .cls-5 {
        stroke-width: 0px;
      }

      .cls-2 {
        fill: #f5ec43;
      }

      .cls-2, .cls-3 {
        stroke-width: 4.6px;
      }

      .cls-3 {
        fill: #b4b6b7;
      }

      .cls-5 {
        fill: #fff;
      }
    </style>
  </defs>
  <g id="Layer_11" data-name="Layer 11">
    <g>
      <g>
        <path class="cls-1" d="M135.14,373.57c108.96,33.07,236.84-49.03,256.82-162.4C402.67,5.14,87.18-85.89,13.94,112.52c-40.87,97.52,30.03,223.83,121.2,261.05Z"/>
        <g>
          <g>
            <path class="cls-2" d="M103.2,79.44c-59.6-.93-69.12,107.84-20.28,126.92,80.3,24.68,89.8-118.99,20.28-126.92Z"/>
            <path class="cls-4" d="M103.2,79.44c69.53,7.94,60.02,151.6-20.27,126.91-48.86-19.07-39.32-127.83,20.27-126.91ZM100.98,197.44c10.61-2.72,26.68-6.44,30.27-18.86,40.2-78.03-129.94,8.15-30.27,18.86ZM104.09,127.25c54.32-.64-.84-58.39-21.28-25.58,1.82,11.18,8.37,25.02,21.28,25.58Z"/>
            <path class="cls-5" d="M100.98,197.44c-99.67-10.71,70.46-96.89,30.26-18.86-3.58,12.42-19.65,16.14-30.26,18.86Z"/>
            <path class="cls-5" d="M104.09,127.25c-26.93-5.15-27.78-41.74,4.52-35.25,23.03,14.21,28.76,33.55-4.52,35.25Z"/>
          </g>
          <path class="cls-4" d="M266.97,59.06c-82.21-6.66-91.63,151.41,2.48,133.77,62.2-2.53,50.69-118.76-2.48-133.77Z"/>
          <path class="cls-5" d="M249.56,184.08c-23.4,0-31.1-27.16-24.69-32.65,18.7-16.63,42.12-28.4,66.54-17.81,0,0,5.46,1.87,5.46,8.25,0,24.72-5.54,42.22-47.31,42.22Z"/>
          <path class="cls-5" d="M270.1,71.03c39.07,20.31-14.12,37.66-27.6,18.89-5.7-5.11-4.08-15.35,2.91-17.73,8.31-2.83,19.1-3.43,24.68-1.17Z"/>
        </g>
        <path class="cls-4" d="M222.77,232.71c12.84-2.37,24.77-9.43,33.01-19.55.85-1.05,1.02-2.51,0-3.54-.88-.88-2.68-1.05-3.54,0-7.77,9.55-18.7,16.03-30.81,18.27-1.33.25-2.08,1.85-1.75,3.08.38,1.4,1.74,1.99,3.08,1.75h0Z"/>
      </g>
      <path class="cls-3" d="M298.96,297.8c-10.05,32.34-69.89,40.18-70.79,10.59,1.95-17.14,24.98-37.16,44.33-39.17,16.31-.34,32.25,12.39,26.46,28.58Z"/>
      <path class="cls-3" d="M86.21,262.05c-1.57-.74-3.04-1.09-4.38-1.11-9.95-23.49-46.93-42.08-44.21-2.09,3.62,17.54,34.88,59.41,49.6,38.61,24.94,22.37,22.71-25.13-1.01-35.41Z"/>
      <path class="cls-3" d="M119.92,29.87c12.53-19.62,54.71-17.57,50.13,1.59-4.34,10.8-23.55,20.96-37.1,19.95-11.18-1.72-19.82-11.8-13.03-21.54Z"/>
      <path class="cls-3" d="M126.48,355.75c7.17,6.63,23.94,9.96,32.59,8.33,9.23-2.54,9-12.2-.87-18.83-19.34-11.06-46.87-2.6-31.73,10.5Z"/>
      <path class="cls-3" d="M359.08,201.82c9.77-12.49,22.42,7.68,15.29,23.18-4.57,7.98-13.63,8.92-17.59,2.14-3-6.42-2.72-19.37,2.3-25.32Z"/>
    </g>
  </g>
</svg>