<?xml version="1.0" encoding="UTF-8"?>
<svg id="Layer_2" data-name="Layer 2" xmlns="http://www.w3.org/2000/svg" viewBox="0 0 296.51 426.32">
  <defs>
    <style>
      .cls-1, .cls-2, .cls-3, .cls-4 {
        stroke-width: 0px;
      }

      .cls-1, .cls-5 {
        fill: #231f20;
      }

      .cls-6 {
        fill: #fce0ce;
      }

      .cls-6, .cls-7, .cls-5 {
        stroke-miterlimit: 10;
        stroke-width: 4.6px;
      }

      .cls-6, .cls-5 {
        stroke: #231f20;
      }

      .cls-2 {
        fill: #00b1dc;
      }

      .cls-3 {
        fill: #c77161;
      }

      .cls-7 {
        fill: none;
        stroke: #fff;
      }

      .cls-4 {
        fill: #fff;
      }
    </style>
  </defs>
  <g id="Layer_3" data-name="Layer 3">
    <g>
      <g>
        <path class="cls-1" d="M168.68,305.11c.07,12.83.51,25.67.87,38.5.41,14.54.84,29.09.96,43.64.05,6.7.06,13.41-.18,20.11-.12,3.22,4.88,3.21,5,0,.46-12.82.17-25.67-.11-38.48-.32-14.55-.8-29.09-1.17-43.64-.17-6.7-.33-13.41-.36-20.12-.02-3.22-5.02-3.22-5,0h0Z"/>
        <path class="cls-1" d="M171.77,408.49c12.12-2.48,23.89-8.74,36.16-7.14,20.41,5.72-7.91,28.87-36.16,7.14Z"/>
      </g>
      <g>
        <path class="cls-6" d="M275.67,112.03c-8.88-7.89,2.62-23.89,13.14-19.16,13.05,9.36-.03,28.49-13.14,19.16Z"/>
        <g>
          <path class="cls-2" d="M73.05,147.98c-4.91,34.84-5.24,20.94,19.46,36.11-6.26,22.22-15.47,44.5-18.55,67.86,36.18-2.62,72.46-3.9,108.73-3.86-14.36-70.12-34.93-64.22,32.52-88.21-25.78-60.68-24.64,28.65-142.16-11.91Z"/>
          <path class="cls-1" d="M70.64,147.31c-.75,5.35-1.61,10.68-2.28,16.04-.34,2.76-.72,5.64-.16,8.41,1.01,4.94,6.4,6.31,10.43,7.98.2.08.64.27.18.07.21.09.42.18.63.27.44.19.89.39,1.33.58,1.03.46,2.05.94,3.05,1.45,2.54,1.26,5.01,2.66,7.43,4.14l-1.15-2.82c-5.01,17.72-11.65,34.96-15.8,52.92-1.19,5.16-2.14,10.36-2.84,15.61-.17,1.28,1.29,2.59,2.5,2.5,28.25-2.04,56.56-3.28,84.88-3.69,7.95-.12,15.9-.17,23.85-.16,1.71,0,2.73-1.59,2.41-3.16-2.28-11.1-5.13-22.07-8.35-32.93-2-6.74-4.34-13.47-5.64-20.39-.12-.65-.22-1.31-.32-1.96.12.78,0,0-.03-.3s-.06-.62-.09-.94c-.08-1.08-.1-2.17-.01-3.25.02-.25.07-.51.08-.76-.03.78-.03.19.05-.17.09-.48.21-.95.35-1.41.07-.23.15-.45.23-.68.28-.78-.18.31.08-.21.22-.43.43-.86.68-1.28.12-.2.24-.39.37-.58.07-.1.15-.2.22-.31.27-.41-.05.06-.06.07.34-.4.67-.81,1.04-1.19.39-.4.8-.79,1.22-1.16.22-.19.45-.38.68-.57.27-.22.28-.21-.04.03.14-.11.29-.22.43-.32,2.43-1.78,5.12-3.21,7.83-4.5.87-.41,1.74-.81,2.61-1.2.42-.19.84-.37,1.25-.55.23-.1.46-.2.7-.3.52-.22-.11.04.43-.18,2.1-.87,4.21-1.71,6.32-2.53,5.32-2.05,10.68-3.97,16.04-5.89,1.57-.56,3.13-1.12,4.7-1.68,1.66-.59,2.15-2.12,1.49-3.67-2.01-4.73-4.16-9.47-6.95-13.8-1.85-2.87-4.04-5.69-6.98-7.52-5.06-3.15-10.67-1.39-15.59,1.07-6.8,3.4-13.17,7.56-20.16,10.63-.25.11-.5.22-.74.32-.66.29.36-.14-.31.13-.59.24-1.19.49-1.79.72-1.16.46-2.33.89-3.51,1.29-2.57.89-5.18,1.66-7.82,2.31-2.92.72-5.88,1.29-8.86,1.72-.13.02-1.21.16-.64.09-.37.05-.74.09-1.11.14-.87.1-1.74.2-2.61.28-1.7.16-3.4.27-5.1.35-18.16.81-36-2.77-53.33-8.12-2.73-.84-5.45-1.74-8.16-2.67-1.28-.44-2.73.5-3.08,1.75-.38,1.37.46,2.63,1.75,3.08,18.22,6.27,37.39,10.9,56.76,11.07,12.29.11,24.64-1.75,36.16-6.13,7.79-2.96,14.9-7.09,22.16-11.1,1.31-.72,2.62-1.43,3.97-2.06.32-.15.63-.29.95-.43.51-.23-.62.24-.09.04.17-.07.33-.14.5-.2.56-.22,1.13-.42,1.71-.59s1.14-.28,1.72-.4c.72-.14-.65.03.17-.02.29-.02.57-.04.86-.04.26,0,.52.01.77.03.12,0,.24.04.36.04.09,0-.78-.16-.16-.01.53.12,1.03.26,1.54.42.59.18-.3-.17-.14-.06.11.07.24.1.35.16.26.14.52.27.78.42s.47.3.7.46c.21.14.68.6-.01-.02.13.12.28.23.42.35.53.45,1.02.93,1.49,1.43.26.28.51.56.75.85.13.16.26.32.4.48.37.44-.34-.48.11.15,2.68,3.67,4.74,7.73,6.63,11.85.62,1.35,1.21,2.7,1.79,4.07l1.49-3.67c-10.31,3.67-20.73,7.21-30.74,11.67-5.27,2.35-11.09,5.11-14.76,9.75-3.08,3.89-3.83,8.62-3.23,13.46.84,6.76,3.07,13.31,5.02,19.82,3.12,10.41,6.03,20.88,8.36,31.5.37,1.69.73,3.39,1.08,5.08l2.41-3.16c-28.32-.03-56.65.74-84.93,2.33-7.94.45-15.87.96-23.8,1.53l2.5,2.5c2.41-18.05,8.52-35.34,14.03-52.61,1.55-4.84,3.05-9.7,4.43-14.59.31-1.08-.21-2.25-1.15-2.82-3.74-2.29-7.61-4.34-11.63-6.09-1.46-.64-2.94-1.24-4.42-1.84-.27-.11-.55-.22-.82-.34-.77-.32.28.13-.28-.12-.48-.21-.95-.42-1.42-.66-.34-.17-.67-.37-.99-.57-.25-.15-.64-.61-.03,0-.14-.15-.32-.26-.47-.41-.12-.12-.22-.28-.35-.38.59.47.22.34.05.02-.08-.14-.15-.34-.25-.46-.22-.29.15.63.11.26-.01-.12-.09-.24-.12-.36-.08-.34-.19-1.5-.16-.55-.02-.54-.09-1.08-.09-1.62,0-1.41.13-2.82.29-4.22.55-4.87,1.49-10.58,2.25-15.97.19-1.34-.33-2.69-1.75-3.08-1.17-.32-2.89.4-3.08,1.75Z"/>
        </g>
        <g>
          <path class="cls-1" d="M95.42,304.53c.12,14.32-.29,28.65-.76,42.96-.52,15.92-1.19,31.83-1.93,47.74-.35,7.53-.71,15.07-1.08,22.6-.16,3.22,4.84,3.21,5,0,.7-14.31,1.38-28.62,1.97-42.93.66-15.91,1.25-31.83,1.59-47.75.16-7.54.26-15.08.2-22.62-.03-3.22-5.03-3.22-5,0h0Z"/>
          <path class="cls-1" d="M94.84,419.18c-10.81-7.14-25-8.94-37.96-8.81-9.7-1.49-20.5,9.78-7.54,14.47,15.11,4.24,30.91-1.52,45.5-5.66Z"/>
        </g>
        <g>
          <path class="cls-3" d="M60.59,318.78c46.59-2.94,97.04-13.79,142.05,1.91-28.76-102.65,3.98-72.49-126.69-72.41-2.76,4.84-13.75,64.24-15.36,70.51Z"/>
          <path class="cls-1" d="M60.59,321.28c18.61-1.19,37.13-3.51,55.71-5.01,18.44-1.48,37.06-2.2,55.48-.02,10.27,1.22,20.42,3.45,30.19,6.84,1.83.64,3.56-1.33,3.08-3.08-4.29-15.34-7.9-30.84-11.53-46.35-1.09-4.68-2.19-9.37-3.62-13.96-1.03-3.3-2.23-6.66-4.11-9.58-1.56-2.44-3.62-4.57-6.19-5.93-2.86-1.52-6.04-2.13-9.24-2.42-3.98-.36-8.01-.2-12,.02-5.81.32-11.61.82-17.41,1.27-18.59,1.45-37.21,2.42-55.86,2.63-3.05.04-6.1.05-9.15.06-.87,0-1.73.47-2.16,1.24-1.44,2.58-1.96,5.88-2.64,8.71-1.27,5.28-2.41,10.6-3.52,15.91-2.5,11.9-4.82,23.83-7.21,35.75-.71,3.58-1.34,7.2-2.24,10.73-.79,3.12,4.03,4.45,4.82,1.33.75-2.96,1.29-5.98,1.89-8.97,1.07-5.36,2.13-10.72,3.2-16.07,2.35-11.81,4.67-23.64,7.41-35.37.51-2.18,1.03-4.36,1.63-6.52.21-.74.42-1.48.67-2.21.09-.25.19-.49.27-.75.12-.4-.37.64-.1.23.05-.08.09-.18.13-.26l-2.16,1.24c19.8-.02,39.58-.79,59.33-2.26,6.29-.47,12.58-1.01,18.87-1.44,4.43-.31,8.88-.59,13.32-.46.86.03,1.72.07,2.58.14.4.03.8.08,1.2.12.24.03,1,.16,0,0,.19.03.37.05.56.08,1.39.22,2.76.54,4.08,1.03.15.06.29.12.44.17.5.18-.66-.31-.13-.05.29.14.58.27.86.42.53.28,1.03.61,1.53.95.22.15.6.56-.09-.08.11.1.24.18.35.28.25.21.49.43.72.66.45.43.83.91,1.24,1.38.34.39-.42-.6-.05-.06.08.11.16.22.24.33.21.3.41.6.6.9.37.6.72,1.22,1.04,1.85.17.34.33.68.49,1.02.08.18.16.36.24.54.3.67-.18-.46.02.05.33.83.65,1.65.95,2.49,1.45,4.13,2.5,8.4,3.52,12.65,3.43,14.25,6.59,28.54,10.4,42.7.64,2.4,1.3,4.79,1.97,7.18l3.08-3.08c-17.65-6.12-36.41-8.28-55.02-8.39s-37.7,1.8-56.46,3.66c-10.4,1.03-20.8,2.06-31.23,2.73-1.35.09-2.5,1.09-2.5,2.5,0,1.29,1.15,2.59,2.5,2.5Z"/>
        </g>
        <path class="cls-1" d="M209.01,147.21c16.49-9.32,33.22-18.21,50.19-26.63,4.84-2.4,9.69-4.76,14.56-7.09,1.22-.58,1.54-2.32.9-3.42-.73-1.25-2.2-1.48-3.42-.9-17.09,8.17-33.96,16.78-50.59,25.85-4.74,2.59-9.46,5.21-14.16,7.87-2.8,1.58-.28,5.9,2.52,4.32h0Z"/>
        <path class="cls-1" d="M72.83,159.81c-17.59-7.33-34.88-15.37-51.84-24.06l.9,3.42c6.1-8.4,10.72-17.81,13.73-27.75.93-3.09-3.89-4.41-4.82-1.33-2.89,9.54-7.37,18.49-13.22,26.55-.76,1.05-.22,2.85.9,3.42,17.35,8.89,35.04,17.07,53.04,24.56,1.25.52,2.75-.56,3.08-1.75.4-1.44-.49-2.55-1.75-3.08h0Z"/>
        <g>
          <g>
            <g>
              <g>
                <path class="cls-6" d="M176.55,27.07c56.89,34.17,10.24,133.94-52.46,118.77-33.72-12.73-51.24-60.67-35.06-92.63,16.48-26.19,59.82-44.44,87.52-26.14Z"/>
                <path class="cls-5" d="M119.47,58.79c-20.64-.32-23.94,37.36-7.02,43.96,27.81,8.55,31.11-41.22,7.02-43.96Z"/>
              </g>
              <path class="cls-1" d="M171.91,60.18c-26.78-2.65-32.57,49.29-1.78,46.52,24.03,1.85,21.29-40.7,1.78-46.52Z"/>
              <path class="cls-4" d="M165.88,103.48c-8.1,0-10.77-9.41-8.55-11.31,6.48-5.76,14.59-9.84,23.05-6.17,0,0,1.89.65,1.89,2.86,0,8.56-1.92,14.62-16.39,14.62Z"/>
              <path class="cls-4" d="M172.99,64.33c13.53,7.03-4.89,13.04-9.56,6.54-5.07-6.12,6.16-8.21,9.56-6.54Z"/>
            </g>
            <path class="cls-4" d="M114.01,98.88c5.27,1.26,13.12-.17,15.18-5.74,13.19-25.61-39.02-.16-15.18,5.74Z"/>
            <path class="cls-4" d="M119.78,75.35c21.82-.97-6.55-22.41-6.84-6.63,1.03,3.27,3.21,6.48,6.84,6.63Z"/>
          </g>
          <path class="cls-1" d="M131.56,119.53c8.14,0,16.27,0,24.41,0,3.22,0,3.22-5,0-5-8.14,0-16.27,0-24.41,0-3.22,0-3.22,5,0,5h0Z"/>
        </g>
        <g>
          <g>
            <path class="cls-1" d="M7.2,73.79c-2.38,10.37-11.2,33.06,4.29,35.71,14.94,1.27,30.12,5.47,44.99,5.07,17.81-21.54,14.97-54.58,24.61-80.48,4.21-10.83,4.45-25.08-9.27-25.66C-5.25-6.55,23.98,4.42,7.2,73.79Z"/>
            <path class="cls-1" d="M4.79,73.12c-1.16,5-2.74,9.88-3.73,14.92s-1.85,11.17.19,16.24c1,2.47,2.62,4.58,4.93,5.95,3.27,1.95,7.09,1.88,10.75,2.34,9.67,1.21,19.23,3.22,28.94,4.1,2.43.22,4.88.37,7.32.41,1.09.02,2.21.07,3.29-.02,1.45-.12,2.1-1.13,2.92-2.18,2.34-3.02,4.37-6.25,6.07-9.66,3.45-6.92,5.7-14.35,7.4-21.87,3.41-15.1,4.69-30.72,9.54-45.48,1.01-3.08,2.25-6.05,2.93-9.23.63-2.94.98-6.02.69-9.02-.58-6.02-3.74-11.28-9.81-13.03-1.65-.47-3.35-.5-5.02-.82-1.77-.34-3.53-.68-5.3-1.02-3.23-.61-6.46-1.21-9.7-1.77-5.31-.93-10.64-1.78-15.99-2.37-6.22-.68-13.28-1.35-19.16,1.29-4.44,2-6.78,6.26-7.86,10.82-1.55,6.51-1.67,13.39-2.19,20.04-.84,10.61-2.01,20.33-4.08,30.74-.64,3.22-1.35,6.43-2.12,9.62s4.07,4.46,4.82,1.33c2.21-9.17,3.87-18.45,5.02-27.81.83-6.73,1.33-13.48,1.85-20.24.19-2.5.39-5.01.69-7.5.03-.29.07-.58.11-.86.03-.26-.09.58.03-.17.08-.53.16-1.07.25-1.6.17-.98.37-1.95.62-2.9.22-.82.5-1.62.78-2.42.2-.57-.29.59,0-.02.08-.17.15-.34.24-.5.17-.35.36-.7.57-1.03.18-.3.41-.57.59-.86-.49.81.15-.16.39-.41.26-.27.54-.51.81-.76.43-.39-.26.15-.06.05s.36-.26.55-.38c.3-.19.61-.37.93-.53.16-.08.34-.15.5-.24.27-.15-.61.21.12-.04.82-.29,1.64-.53,2.49-.71.45-.09.9-.16,1.35-.23-.92.15.04,0,.25-.02.3-.03.6-.06.9-.08,1.19-.09,2.39-.12,3.59-.1,7.14.08,13.23,1.13,20.1,2.29,4.86.82,9.71,1.72,14.55,2.65,1.44.28,2.89.6,4.34.84,1.33.22,2.44.2,3.73.57,1.75.5,3.02,1.27,4.21,2.77-.3-.38.17.25.18.27.11.17.22.34.32.51.23.38.43.78.61,1.19-.19-.45.11.31.11.33.08.24.16.48.23.72.14.49.26,1,.35,1.5.11.61.2,1.57.22,2.54.02,1.18-.04,2.36-.18,3.54-.5,4.5-2.64,9.31-4.03,13.87-3.44,11.33-4.97,23.13-7.12,34.74-2.08,11.23-4.67,22.69-10.46,32.67-1.37,2.36-2.9,4.62-4.62,6.72l1.77-.73c-7.88.18-15.7-.86-23.47-2.08-3.8-.6-7.59-1.23-11.4-1.78-1.95-.28-3.91-.55-5.87-.78-1.63-.19-3.34-.2-4.93-.64-.25-.07-.5-.14-.74-.23-.02,0-.78-.31-.32-.11-.43-.18-.84-.41-1.24-.66-.19-.12-.38-.24-.56-.38.43.32-.12-.12-.17-.16-.16-.15-.31-.29-.46-.45-.07-.07-.64-.76-.3-.31-.21-.28-.41-.58-.59-.89-.11-.19-.2-.38-.31-.57-.03-.06-.32-.72-.11-.2-.38-.91-.61-1.87-.79-2.83,0-.05-.11-.82-.05-.28-.03-.24-.05-.48-.07-.72-.04-.5-.06-.99-.07-1.49-.02-1.13.03-2.26.13-3.38.17-1.96.52-3.95.99-6.14.98-4.56,2.4-9.01,3.45-13.55.72-3.13-4.09-4.47-4.82-1.33Z"/>
          </g>
          <path class="cls-7" d="M68.12,48.45c-9.86.93-15.66-11.08-15.93-19.7,8.09,93.97-59.35,40.66-15.72,25.08"/>
        </g>
      </g>
    </g>
  </g>
</svg>