<?xml version="1.0" encoding="UTF-8"?>
<svg id="Layer_2" data-name="Layer 2" xmlns="http://www.w3.org/2000/svg" viewBox="0 0 404.61 559.07">
  <defs>
    <style>
      .cls-1, .cls-2, .cls-3 {
        stroke-width: 0px;
      }

      .cls-1, .cls-4 {
        fill: #231f20;
      }

      .cls-2 {
        fill: #0a0203;
      }

      .cls-5 {
        fill: #f5ec43;
      }

      .cls-5, .cls-6, .cls-7, .cls-8, .cls-4 {
        stroke-miterlimit: 10;
      }

      .cls-5, .cls-6, .cls-8, .cls-4 {
        stroke: #231f20;
      }

      .cls-5, .cls-7, .cls-8, .cls-4 {
        stroke-width: 4.6px;
      }

      .cls-6 {
        fill: #a1cf6d;
        stroke-width: 4.6px;
      }

      .cls-7 {
        fill: none;
        stroke: #fff;
      }

      .cls-8 {
        fill: #816c5d;
      }

      .cls-3 {
        fill: #fff;
      }
    </style>
  </defs>
  <g id="Layer_3" data-name="Layer 3">
    <g>
      <path class="cls-1" d="M277.18,429.32c6.82,10.01,13.98,19.8,21.71,29.13,2.08,2.51,4.2,4.97,6.32,7.44.74.87,1.48,1.73,2.19,2.62.15.18.29.37.44.55.32.39-.34-.46-.13-.16.07.1.15.2.22.29.25.33.49.67.72,1.01.4.59.67,1.25,1.04,1.85-.03-.05-.24-.68-.06-.13.04.14.09.27.13.41s.09.8.19.88c-.2-.15-.05-.81-.04-.19,0,.15.01.3.01.45,0,.3-.06.61-.06.91,0-.07.13-.71,0-.14-.04.17-.07.35-.1.52-.08.36-.18.72-.28,1.07-1.44,4.94-3.68,9.68-5.39,14.54-3.85,10.99-6.79,22.29-9.31,33.65-.45,2.03-.88,4.07-1.31,6.11-.27,1.32.39,2.7,1.75,3.08,1.24.34,2.8-.42,3.08-1.75,2.6-12.5,5.62-24.95,9.69-37.07,1.84-5.48,4.18-10.79,6.01-16.27,1.07-3.21,1.29-6.31-.37-9.36-.92-1.69-2.2-3.2-3.42-4.68-1.84-2.21-3.74-4.37-5.6-6.57-7.08-8.38-13.42-16.8-19.74-25.85-1.13-1.62-2.26-3.26-3.38-4.89-.76-1.11-2.2-1.61-3.42-.9-1.1.65-1.66,2.3-.9,3.42h0Z"/>
      <g>
        <path class="cls-8" d="M10.67,311.89c-11.74-1.81-10.76-21.49.65-23.22,16.04.79,15.43,23.95-.65,23.22Z"/>
        <path class="cls-1" d="M187.61,555.01c-7.25-10.43-22.37-17.18-35.34-21.22-8.55-3.16-43.13-7.97-31.56,9.64,17.74,15.5,44.85,19.71,66.9,11.58Z"/>
        <path class="cls-1" d="M296.04,531.33c17.92-3.15,35.31-11.09,53.45-9.06,29.83,6.89-11.01,36.86-53.45,9.06Z"/>
        <path class="cls-5" d="M167.87,371.47c.73,18.58-2.14,46.35.28,64.51,33.91,4.63,90.28,23.03,66.31-30.2,8.24,7.58,14.79,16.98,19.06,27.33,73.19-2.69,51.41-31.22,39.82-87.23-44.36,3.72-82.21,13.84-125.47,25.59Z"/>
        <path class="cls-1" d="M24.09,302.2c20.32-.29,40.64,1.75,60.47,6.18,5.59,1.25,11.14,2.68,16.64,4.29,1.08.32,2.25-.22,2.82-1.15,5.59-9.03,14.01-16.35,23.83-20.46,1.24-.52,2.14-1.65,1.75-3.08-.32-1.17-1.82-2.27-3.08-1.75-11.08,4.64-20.48,12.53-26.82,22.76l2.82-1.15c-19.85-5.8-40.37-9.27-61.02-10.33-5.8-.3-11.61-.4-17.42-.31-3.21.05-3.22,5.05,0,5h0Z"/>
        <path class="cls-6" d="M117.22,276.17c15.9,90.31,47.22-70.21,45.14,102.13,105.96-46.23,164.66,23.22,114.5-123.82,10.29-20.8,27.03-38.46,41.59-56.51-24.49-50.89-49.99-1.55-80.26,19.39-73.57,18.04-66.32-14.98-120.97,58.82Z"/>
        <path class="cls-1" d="M307.18,183.12c2.54-2.36,6.37-4.04,9.36-6.33,1.67-1.28,3.27-2.77,4.24-4.67,1.04-2.03,1.18-4.05,1.05-6.28-.76-12.82.25-25.91,2.48-38.54,1.27-7.16,2.97-14.24,5.09-21.2.94-3.09-3.89-4.4-4.82-1.33-3.73,12.24-6.14,24.87-7.25,37.62-.55,6.3-.76,12.63-.64,18.95.03,1.5.06,3.01.14,4.5.03.56.1,1.11.1,1.67,0,.19,0,.38-.02.57-.03.38.03.08-.11.54-.25.83-.33,1.06-.87,1.87-.12.19-.25.35-.6.72-.37.4-.77.77-1.18,1.12-3.03,2.59-7.4,4.36-10.51,7.25-2.36,2.19,1.18,5.72,3.54,3.54h0Z"/>
        <path class="cls-1" d="M194.95,442.4c-3.11,28.97-5.79,57.99-8.04,87.04-.63,8.19-1.23,16.39-1.8,24.59-.09,1.35,1.22,2.5,2.5,2.5,1.43,0,2.41-1.15,2.5-2.5,2.01-29.07,4.44-58.11,7.31-87.11.81-8.18,1.65-16.35,2.53-24.53.14-1.34-1.25-2.5-2.5-2.5-1.47,0-2.36,1.15-2.5,2.5h0Z"/>
        <g>
          <g>
            <g>
              <g>
                <path class="cls-8" d="M242.29,87.51c58.87,30.64,18.37,133.07-45.13,121.74-34.43-10.65-54.84-57.44-40.63-90.32,14.85-27.14,57-48,85.76-31.42Z"/>
                <path class="cls-4" d="M187.25,122.65c-20.62.93-21.62,38.74-4.33,44.31,28.28,6.84,28.54-43.03,4.33-44.31Z"/>
              </g>
              <path class="cls-1" d="M239.68,120.84c-26.89-1.02-29.51,51.18,1.06,46.54,24.1.39,18.77-41.92-1.06-46.54Z"/>
              <path class="cls-3" d="M236.29,164.44c-8.09.49-11.33-8.74-9.22-10.77,6.11-6.14,13.96-10.71,22.63-7.56,0,0,1.93.53,2.06,2.74.52,8.55-1.03,14.71-15.47,15.6Z"/>
              <path class="cls-3" d="M241.01,124.92c13.94,6.2-4.09,13.32-9.14,7.11-5.43-5.8,5.65-8.57,9.14-7.11Z"/>
            </g>
            <path class="cls-3" d="M184.24,162.99c5.34.93,13.08-.97,14.8-6.66,11.61-26.36-38.95,2.22-14.8,6.66Z"/>
            <path class="cls-3" d="M188.57,139.16c21.72-2.29-7.9-21.97-7.23-6.21,1.23,3.21,3.6,6.27,7.23,6.21Z"/>
          </g>
          <path class="cls-1" d="M202.86,182.54c8.12-.5,16.24-.99,24.36-1.49,3.2-.19,3.22-5.2,0-5-8.12.5-16.24.99-24.36,1.49-3.2.19-3.22,5.2,0,5h0Z"/>
        </g>
        <g>
          <g>
            <path class="cls-2" d="M310.74,62.08c-5.96,8.81-22.37,26.79-8.88,34.85,11.69,6.41,23.38,12.81,35.07,19.22,17,10.12,44.76-53.16,57.05-64.44,7.83-8.58,13.19-21.78.61-27.27-66.49-41.78-43.18-21-83.85,37.64Z"/>
            <path class="cls-1" d="M308.58,60.81c-3.45,5.07-7.38,9.79-10.4,15.15s-5.64,11.93-2.77,17.79c1.7,3.48,5.01,5.24,8.26,7.02,4.6,2.52,9.21,5.04,13.81,7.57,4.68,2.56,9.35,5.12,14.03,7.69,2.33,1.28,4.79,3.08,7.49,3.53,3.72.62,7.3-.79,10.34-2.88,3.84-2.65,7.06-6.1,10.01-9.69,7.43-9.01,13.55-19.05,19.66-28.97,2.83-4.59,5.62-9.2,8.56-13.73,1.23-1.89,2.48-3.77,3.79-5.6.27-.38.55-.76.83-1.13.14-.19.29-.38.43-.57.27-.35-.03.04-.07.09.09-.11.17-.22.26-.33.52-.65,1.05-1.29,1.61-1.91,4.07-4.5,7.87-9.2,9.5-15.18.81-2.96,1.03-6.27,0-9.2-1.18-3.32-3.65-5.9-6.74-7.55-3.8-2.03-7.4-4.45-11.08-6.71-3.15-1.93-6.32-3.85-9.52-5.7-4.71-2.74-9.49-5.41-14.51-7.55-5.78-2.46-12.99-4.74-18.69-.85-5.63,3.84-8.52,11.02-11.35,16.94-5.21,10.89-10.55,21.66-16.94,31.92-2.08,3.34-4.25,6.63-6.49,9.86-.77,1.11-.21,2.78.9,3.42,1.24.73,2.65.22,3.42-.9,7.54-10.89,14.07-22.39,19.85-34.3,1.94-4,3.79-8.05,5.79-12.02.79-1.58,1.61-3.14,2.51-4.66.39-.67.8-1.32,1.23-1.97.18-.27.37-.54.56-.81.11-.15.22-.29.32-.44.35-.49-.23.26.01-.02.83-.96,1.65-1.84,2.63-2.67-.59.5-.05.05.22-.13.24-.16.49-.31.75-.45.24-.13.49-.23.73-.36.1-.06-.62.22-.15.07.15-.05.31-.11.46-.16.55-.18,1.11-.27,1.68-.39-.79.17-.04,0,.32-.01.32-.02.65-.03.97-.02s.64.02.95.05c.15.01.31.03.46.04.07,0,.13.02.2.02.5.04-.62-.12-.12-.01.72.15,1.44.26,2.16.44,1.76.45,3.47,1.07,5.15,1.76.09.04.18.08.28.11.34.14-.38-.16-.04-.02.22.1.44.19.66.29.53.23,1.05.47,1.57.72,1.1.52,2.19,1.06,3.27,1.61,5.58,2.86,10.97,6.08,16.33,9.35,3.54,2.16,7.06,4.35,10.57,6.55,1.41.89,3.07,1.53,4.35,2.56,1.15.93,1.81,1.75,2.42,3.09.02.04.08.17.18.5s.2.67.27,1.01c.11.49.16.89.16,1.69.01,1.42-.14,2.28-.55,3.74-.83,2.95-2.37,5.68-4.2,8.23-1.27,1.77-2.79,3.25-4.22,4.87-1.24,1.41-2.38,2.92-3.48,4.44-2.7,3.74-5.16,7.67-7.6,11.59-5.92,9.53-11.63,19.21-18.1,28.38-2.95,4.18-5.64,7.77-9.24,11.55-1.43,1.51-2.95,2.94-4.58,4.23.48-.38-.1.07-.23.17-.17.12-.34.25-.51.37-.38.27-.77.52-1.16.76-.35.21-.71.42-1.08.61-.19.1-.38.19-.57.28-.26.13-.62.25-.11.06-.71.27-1.41.48-2.15.65-.36.08-.37.03.05,0-.18.01-.36.04-.54.05-.36.02-.71,0-1.07,0-.52,0,.13.04.07.02-.15-.04-.31-.05-.45-.09-.35-.08-.68-.22-1.02-.31-.31-.08.5.28-.03-.02-.14-.08-.29-.15-.43-.23-1.02-.54-2.02-1.11-3.03-1.67-8.99-4.92-17.98-9.85-26.96-14.77-2.05-1.12-4.28-2.11-6.17-3.48-.97-.7-1.7-1.49-2.26-2.52-.35-.64-.27-.45-.48-1.18-.09-.31-.16-.62-.22-.93,0-.02-.06-.41-.03-.14.04.3-.02-.33-.03-.39-.07-1.5.02-2.19.34-3.51,1.4-5.73,5.24-10.96,8.75-15.79,1.54-2.12,3.14-4.21,4.61-6.38,1.81-2.67-2.52-5.17-4.32-2.52Z"/>
          </g>
          <path class="cls-7" d="M377.5,60.51c-9.44-2.98-10.12-16.29-7.02-24.34-29.06,89.73-70.49,14.4-24.23,17"/>
        </g>
      </g>
    </g>
  </g>
</svg>