<?xml version="1.0" encoding="UTF-8"?>
<svg id="Layer_2" data-name="Layer 2" xmlns="http://www.w3.org/2000/svg" viewBox="0 0 366.19 416.54">
  <defs>
    <style>
      .cls-1, .cls-2 {
        stroke-width: 0px;
      }

      .cls-1, .cls-3 {
        fill: #231f20;
      }

      .cls-4 {
        fill: #f5ec43;
      }

      .cls-4, .cls-5, .cls-6, .cls-7, .cls-8, .cls-3 {
        stroke-miterlimit: 10;
      }

      .cls-4, .cls-5, .cls-6, .cls-8, .cls-3 {
        stroke: #231f20;
      }

      .cls-4, .cls-5, .cls-7, .cls-8, .cls-3 {
        stroke-width: 4.6px;
      }

      .cls-5 {
        fill: #b6a69e;
      }

      .cls-6 {
        fill: #a1cf6d;
        stroke-width: 4.6px;
      }

      .cls-7 {
        fill: none;
        stroke: #fff;
      }

      .cls-2 {
        fill: #fff;
      }

      .cls-8 {
        fill: #ad9282;
      }
    </style>
  </defs>
  <g id="Layer_3" data-name="Layer 3">
    <g>
      <path class="cls-8" d="M5.47,116.04c-8.88-7.89,2.62-23.89,13.14-19.16,13.05,9.36-.03,28.49-13.14,19.16Z"/>
      <g>
        <g>
          <path class="cls-1" d="M250.79,297.31c17.92,17.14,30.44,39.1,39.38,62.06,2.52,6.48,4.78,13.06,6.83,19.7.95,3.06,5.78,1.76,4.82-1.33-7.45-24.11-17.67-47.8-33.15-67.9-4.39-5.7-9.15-11.09-14.35-16.06-2.33-2.22-5.87,1.31-3.54,3.54h0Z"/>
          <path class="cls-1" d="M182.1,308.31c5.02,24.72,4.76,50.27,11.06,74.76,1.78,6.93,4.13,13.69,7.11,20.2.56,1.23,2.34,1.53,3.42.9,1.26-.74,1.46-2.19.9-3.42-10.43-22.75-11.44-48.19-14.39-72.64-.85-7.07-1.86-14.13-3.28-21.12-.27-1.32-1.84-2.09-3.08-1.75-1.38.38-2.02,1.75-1.75,3.08h0Z"/>
          <path class="cls-6" d="M158.14,256.75c4.38,77.18-22.25,53.57,45.91,60.11,1.24-46.65,10.72-38.35,20.47,1.46,15.22-10.95,33.38-17.78,52.05-19.57-18.34-57.45-59.24-100.11-118.42-42Z"/>
          <path class="cls-4" d="M90.38,143.55c50.05,29.1,65.06,59.17,57.49,116.91,63.9-40.52,149.89,26.38,83.64-77.05,30.9,16.36,32.33-2.16,36.22-29.74-17.02-10.58-39.44-9.53-56.46-20.12-38.18,40.92-98.67-45.91-120.89,9.99Z"/>
          <path class="cls-1" d="M202.43,402.01c-10.81-9.46-28.26-12.4-42.61-12.97-10.79-1.04-45.8,4.93-28.31,20.42,22.48,11.73,51.36,8.64,70.92-7.45Z"/>
          <path class="cls-1" d="M300.14,379.26c8.49-18.09,35.94-42.03,55.86-44.06,7.42,7.6-5.3,21.28-11.7,26.64-12.49,10.59-28.25,18.93-44.55,17.32"/>
        </g>
        <g>
          <g>
            <g>
              <path class="cls-5" d="M227.21,38.45c14.83,32.61-4.7,79.78-38.93,91.07-63.28,12.52-105.69-89.13-47.41-120.87,28.44-17.12,70.98,2.94,86.34,29.8Z"/>
              <path class="cls-3" d="M201.72,86.97c17.18-5.89,15.47-43.67-5.17-44.22-24.18,1.73-22.98,51.59,5.17,44.22Z"/>
            </g>
            <path class="cls-1" d="M138.48,42.41c-15.42,12.03-18.74,47.72,5.27,47.59,36.27,5.09,25.82-61.4-5.27-47.59Z"/>
            <path class="cls-2" d="M148.31,85.45c8.1.34,11.16-8.95,9.02-10.94-6.23-6.03-14.16-10.44-22.77-7.14,0,0-1.92.57-2.01,2.77-.36,8.56,1.3,14.69,15.76,15.3Z"/>
            <path class="cls-2" d="M142.85,46.03c-13.82,6.46,4.34,13.24,9.27,6.94,5.32-5.9-5.81-8.46-9.27-6.94Z"/>
          </g>
          <path class="cls-2" d="M185.41,76.65c1.82,5.66,9.6,7.41,14.92,6.38,24.07-4.89-27.03-32.52-14.92-6.38Z"/>
          <path class="cls-2" d="M202.67,52.94c.37-15.78-28.87,4.46-7.11,6.34,3.64,0,5.95-3.11,7.11-6.34Z"/>
        </g>
        <path class="cls-1" d="M265.01,176.12c12.61.19,25.13,1.86,37.35,4.98,1.21.31,2.84-.39,3.08-1.75,3.15-18.08,6.29-36.16,9.44-54.24.23-1.33-.36-2.69-1.75-3.08-1.2-.33-2.84.41-3.08,1.75-3.15,18.08-6.29,36.16-9.44,54.24l3.08-1.75c-12.63-3.22-25.64-4.96-38.68-5.16-3.22-.05-3.22,4.95,0,5h0Z"/>
        <path class="cls-1" d="M94.24,128.49c-17.52-5.79-35.31-10.79-53.29-14.93-5.1-1.18-10.22-2.29-15.36-3.33-1.32-.27-2.7.38-3.08,1.75-.34,1.23.42,2.8,1.75,3.08,18.09,3.68,36,8.19,53.67,13.52,5.01,1.51,10.01,3.1,14.98,4.74,3.06,1.01,4.37-3.81,1.33-4.82h0Z"/>
        <g>
          <g>
            <path class="cls-1" d="M287.26,98.34c-2.38,10.37-11.2,33.06,4.29,35.71,14.94,1.27,30.12,5.47,44.99,5.07,17.81-21.54,14.97-54.58,24.61-80.48,4.21-10.83,4.45-25.08-9.27-25.66-77.09-14.99-47.85-4.01-64.63,65.36Z"/>
            <path class="cls-1" d="M284.85,97.67c-1.16,5-2.74,9.88-3.73,14.92s-1.85,11.17.19,16.24c1,2.47,2.62,4.58,4.93,5.95,3.27,1.95,7.09,1.88,10.75,2.34,9.67,1.21,19.23,3.22,28.94,4.1,2.43.22,4.88.37,7.32.41,1.09.02,2.21.07,3.29-.02,1.45-.12,2.1-1.13,2.92-2.18,2.34-3.02,4.37-6.25,6.07-9.66,3.45-6.92,5.7-14.35,7.4-21.87,3.41-15.1,4.69-30.72,9.54-45.48,1.01-3.08,2.25-6.05,2.93-9.23.63-2.94.98-6.02.69-9.02-.58-6.02-3.74-11.28-9.81-13.03-1.65-.47-3.35-.5-5.02-.82-1.77-.34-3.53-.68-5.3-1.02-3.23-.61-6.46-1.21-9.7-1.77-5.31-.93-10.64-1.78-15.99-2.37-6.22-.68-13.28-1.35-19.16,1.29-4.44,2-6.78,6.26-7.86,10.82-1.55,6.51-1.67,13.39-2.19,20.04-.84,10.61-2.01,20.33-4.08,30.74-.64,3.22-1.35,6.43-2.12,9.62s4.07,4.46,4.82,1.33c2.21-9.17,3.87-18.45,5.02-27.81.83-6.73,1.33-13.48,1.85-20.24.19-2.5.39-5.01.69-7.5.03-.29.07-.58.11-.86.03-.26-.09.58.03-.17.08-.53.16-1.07.25-1.6.17-.98.37-1.95.62-2.9.22-.82.5-1.62.78-2.42.2-.57-.29.59,0-.02.08-.17.15-.34.24-.5.17-.35.36-.7.57-1.03.18-.3.41-.57.59-.86-.49.81.15-.16.39-.41.26-.27.54-.51.81-.76.43-.39-.26.15-.06.05s.36-.26.55-.38c.3-.19.61-.37.93-.53.16-.08.34-.15.5-.24.27-.15-.61.21.12-.04.82-.29,1.64-.53,2.49-.71.45-.09.9-.16,1.35-.23-.92.15.04,0,.25-.02.3-.03.6-.06.9-.08,1.19-.09,2.39-.12,3.59-.1,7.14.08,13.23,1.13,20.1,2.29,4.86.82,9.71,1.72,14.55,2.65,1.44.28,2.89.6,4.34.84,1.33.22,2.44.2,3.73.57,1.75.5,3.02,1.27,4.21,2.77-.3-.38.17.25.18.27.11.17.22.34.32.51.23.38.43.78.61,1.19-.19-.45.11.31.11.33.08.24.16.48.23.72.14.49.26,1,.35,1.5.11.61.2,1.57.22,2.54.02,1.18-.04,2.36-.18,3.54-.5,4.5-2.64,9.31-4.03,13.87-3.44,11.33-4.97,23.13-7.12,34.74-2.08,11.23-4.67,22.69-10.46,32.67-1.37,2.36-2.9,4.62-4.62,6.72l1.77-.73c-7.88.18-15.7-.86-23.47-2.08-3.8-.6-7.59-1.23-11.4-1.78-1.95-.28-3.91-.55-5.87-.78-1.63-.19-3.34-.2-4.93-.64-.25-.07-.5-.14-.74-.23-.02,0-.78-.31-.32-.11-.43-.18-.84-.41-1.24-.66-.19-.12-.38-.24-.56-.38.43.32-.12-.12-.17-.16-.16-.15-.31-.29-.46-.45-.07-.07-.64-.76-.3-.31-.21-.28-.41-.58-.59-.89-.11-.19-.2-.38-.31-.57-.03-.06-.32-.72-.11-.2-.38-.91-.61-1.87-.79-2.83,0-.05-.11-.82-.05-.28-.03-.24-.05-.48-.07-.72-.04-.5-.06-.99-.07-1.49-.02-1.13.03-2.26.13-3.38.17-1.96.52-3.95.99-6.14.98-4.56,2.4-9.01,3.45-13.55.72-3.13-4.09-4.47-4.82-1.33Z"/>
          </g>
          <path class="cls-7" d="M347.93,72.64c-9.86.93-15.66-11.08-15.93-19.7,8.09,93.97-59.35,40.66-15.72,25.08"/>
        </g>
      </g>
    </g>
  </g>
</svg>