<?xml version="1.0" encoding="UTF-8"?>
<svg id="Layer_2" data-name="Layer 2" xmlns="http://www.w3.org/2000/svg" viewBox="0 0 111.68 121.55">
  <defs>
    <style>
      .cls-1 {
        fill: #f5ec43;
        stroke: #231f20;
        stroke-miterlimit: 10;
        stroke-width: 4.6px;
      }
    </style>
  </defs>
  <g id="Layer_11" data-name="Layer 11">
    <path class="cls-1" d="M32.09,43.62c2.81-6.44-1.75-9.25-.73-21.36,3.05-45.43,32.23-.4,42.82,9.21,4.48.76,5.67-3.18,14.36-5.31,30.66-8.52,17.27,21.86,8.09,32.43-.06,5.17,5.52,5.93,9.45,14.35,13.98,31.5-20.31,17.75-32.83,12.78-5.25,1.46-4.36,9.19-11.35,19.71-11.69,18.1-24.01,20.87-27.29-6.5-.87-19.1,3.44-17.38-14.94-14.94-41.8-3.76,3.89-31.56,12.42-40.37Z"/>
  </g>
</svg>