<?xml version="1.0" encoding="UTF-8"?>
<svg id="Layer_2" data-name="Layer 2" xmlns="http://www.w3.org/2000/svg" viewBox="0 0 83.16 83.94">
  <defs>
    <style>
      .cls-1 {
        fill: #f5ec43;
        stroke: #231f20;
        stroke-miterlimit: 10;
        stroke-width: 4.6px;
      }
    </style>
  </defs>
  <g id="Layer_11" data-name="Layer 11">
    <path class="cls-1" d="M27.6,55.03c-3.64-3.28-6.51-.89-14.29-4.24-16.52-6.45-13.06-14.97,1.16-20.63,7.92-3.45,12.47-2.09,14.39-5.66,1.5-2.79-.85-4.45-.34-10.66.22-12.04,7.93-14.81,15.91-7.58,4.76,4.16,3.84,8.18,7.33,9.39,3.4,1.18,5.14-2.34,11.58-3.08,14.46-1.57,15.82,7,7.87,16.48-3.8,5.14-6.53,5.36-6.67,8.06-.2,3.79,5.11,4.91,10.53,11.86,9.42,11.55,8.31,20.6-10.33,16.61-12.3-3.69-11.03-5.79-13.18,6.58-5.45,13.31-13.43,12.37-18.19-1.3-4.05-9.12-2.05-12.49-5.76-15.83Z"/>
  </g>
</svg>